<?xml version="1.0" encoding="UTF-8" standalone="no"?>
<!DOCTYPE svg PUBLIC "-//W3C//DTD SVG 1.1//EN"
 "http://www.w3.org/Graphics/SVG/1.1/DTD/svg11.dtd">
<!-- Generated by graphviz version 2.43.0 (0)
 -->
<!-- Title: %3 Pages: 1 -->
<svg width="445pt" height="548pt"
 viewBox="0.00 0.00 444.59 548.00" xmlns="http://www.w3.org/2000/svg" xmlns:xlink="http://www.w3.org/1999/xlink">
<g id="graph0" class="graph" transform="scale(1 1) rotate(0) translate(4 544)">
<title>%3</title>
<polygon fill="white" stroke="transparent" points="-4,4 -4,-544 440.59,-544 440.59,4 -4,4"/>
<!-- wrap_up -->
<g id="node1" class="node">
<title>wrap_up</title>
<ellipse fill="none" stroke="black" cx="74.7" cy="-450" rx="50.09" ry="18"/>
<text text-anchor="middle" x="74.7" y="-446.3" font-family="Times,serif" font-size="14.00">wrap_up</text>
</g>
<!-- move -->
<g id="node2" class="node">
<title>move</title>
<ellipse fill="none" stroke="black" cx="50.7" cy="-378" rx="36" ry="18"/>
<text text-anchor="middle" x="50.7" y="-374.3" font-family="Times,serif" font-size="14.00">move</text>
</g>
<!-- wrap_up&#45;&gt;move -->
<g id="edge1" class="edge">
<title>wrap_up&#45;&gt;move</title>
<path fill="none" stroke="black" d="M68.89,-432.05C66.14,-424.06 62.81,-414.33 59.75,-405.4"/>
<polygon fill="black" stroke="black" points="63.01,-404.11 56.45,-395.79 56.38,-406.38 63.01,-404.11"/>
</g>
<!-- reswitch -->
<g id="node3" class="node">
<title>reswitch</title>
<ellipse fill="none" stroke="black" cx="50.7" cy="-18" rx="50.89" ry="18"/>
<text text-anchor="middle" x="50.7" y="-14.3" font-family="Times,serif" font-size="14.00">reswitch</text>
</g>
<!-- move&#45;&gt;reswitch -->
<g id="edge2" class="edge">
<title>move&#45;&gt;reswitch</title>
<path fill="none" stroke="black" d="M50.7,-359.95C50.7,-333.29 50.7,-280.11 50.7,-235 50.7,-235 50.7,-235 50.7,-161 50.7,-121 50.7,-74.65 50.7,-46.08"/>
<polygon fill="black" stroke="black" points="54.2,-46.05 50.7,-36.05 47.2,-46.05 54.2,-46.05"/>
</g>
<!-- move_1 -->
<g id="node4" class="node">
<title>move_1</title>
<ellipse fill="none" stroke="black" cx="247.7" cy="-306" rx="46.29" ry="18"/>
<text text-anchor="middle" x="247.7" y="-302.3" font-family="Times,serif" font-size="14.00">move_1</text>
</g>
<!-- move&#45;&gt;move_1 -->
<g id="edge3" class="edge">
<title>move&#45;&gt;move_1</title>
<path fill="none" stroke="black" d="M79.34,-366.82C112.35,-355.09 166.93,-335.7 204.97,-322.18"/>
<polygon fill="black" stroke="black" points="206.49,-325.36 214.74,-318.71 204.15,-318.76 206.49,-325.36"/>
</g>
<!-- move_lig -->
<g id="node5" class="node">
<title>move_lig</title>
<ellipse fill="none" stroke="black" cx="250.7" cy="-234" rx="51.99" ry="18"/>
<text text-anchor="middle" x="250.7" y="-230.3" font-family="Times,serif" font-size="14.00">move_lig</text>
</g>
<!-- move_1&#45;&gt;move_lig -->
<g id="edge4" class="edge">
<title>move_1&#45;&gt;move_lig</title>
<path fill="none" stroke="black" d="M248.44,-287.7C248.77,-279.98 249.16,-270.71 249.53,-262.11"/>
<polygon fill="black" stroke="black" points="253.03,-262.25 249.96,-252.1 246.04,-261.95 253.03,-262.25"/>
</g>
<!-- move_2 -->
<g id="node6" class="node">
<title>move_2</title>
<ellipse fill="none" stroke="black" cx="330.7" cy="-522" rx="46.29" ry="18"/>
<text text-anchor="middle" x="330.7" y="-518.3" font-family="Times,serif" font-size="14.00">move_2</text>
</g>
<!-- move_1&#45;&gt;move_2 -->
<g id="edge5" class="edge">
<title>move_1&#45;&gt;move_2</title>
<path fill="none" stroke="black" d="M254.26,-323.94C268.64,-361 302.99,-449.57 320.32,-494.25"/>
<polygon fill="black" stroke="black" points="317.16,-495.79 324.04,-503.85 323.69,-493.26 317.16,-495.79"/>
</g>
<!-- lookahead -->
<g id="node8" class="node">
<title>lookahead</title>
<ellipse fill="none" stroke="black" cx="294.7" cy="-162" rx="57.69" ry="18"/>
<text text-anchor="middle" x="294.7" y="-158.3" font-family="Times,serif" font-size="14.00">lookahead</text>
</g>
<!-- move_lig&#45;&gt;lookahead -->
<g id="edge9" class="edge">
<title>move_lig&#45;&gt;lookahead</title>
<path fill="none" stroke="black" d="M261.35,-216.05C266.54,-207.8 272.88,-197.7 278.64,-188.54"/>
<polygon fill="black" stroke="black" points="281.78,-190.12 284.14,-179.79 275.86,-186.39 281.78,-190.12"/>
</g>
<!-- main -->
<g id="node9" class="node">
<title>main</title>
<ellipse fill="none" stroke="black" cx="161.7" cy="-90" rx="33.6" ry="18"/>
<text text-anchor="middle" x="161.7" y="-86.3" font-family="Times,serif" font-size="14.00">main</text>
</g>
<!-- move_lig&#45;&gt;main -->
<g id="edge10" class="edge">
<title>move_lig&#45;&gt;main</title>
<path fill="none" stroke="black" d="M240.14,-216.15C224.6,-191.36 195.46,-144.88 177.41,-116.07"/>
<polygon fill="black" stroke="black" points="180.24,-114 171.97,-107.39 174.31,-117.72 180.24,-114"/>
</g>
<!-- bigswitch -->
<g id="node7" class="node">
<title>bigswitch</title>
<ellipse fill="none" stroke="black" cx="380.7" cy="-18" rx="55.79" ry="18"/>
<text text-anchor="middle" x="380.7" y="-14.3" font-family="Times,serif" font-size="14.00">bigswitch</text>
</g>
<!-- move_2&#45;&gt;bigswitch -->
<g id="edge6" class="edge">
<title>move_2&#45;&gt;bigswitch</title>
<path fill="none" stroke="black" d="M340.81,-504.19C355.42,-478.27 380.7,-426.57 380.7,-379 380.7,-379 380.7,-379 380.7,-161 380.7,-121 380.7,-74.65 380.7,-46.08"/>
<polygon fill="black" stroke="black" points="384.2,-46.05 380.7,-36.05 377.2,-46.05 384.2,-46.05"/>
</g>
<!-- move_2&#45;&gt;lookahead -->
<g id="edge7" class="edge">
<title>move_2&#45;&gt;lookahead</title>
<path fill="none" stroke="black" d="M330.7,-503.95C330.7,-477.29 330.7,-424.11 330.7,-379 330.7,-379 330.7,-379 330.7,-305 330.7,-263.78 316.26,-217.83 305.67,-189.66"/>
<polygon fill="black" stroke="black" points="308.86,-188.19 301.98,-180.13 302.33,-190.72 308.86,-188.19"/>
</g>
<!-- lookahead&#45;&gt;main -->
<g id="edge8" class="edge">
<title>lookahead&#45;&gt;main</title>
<path fill="none" stroke="black" d="M266.49,-146.15C245.27,-134.99 216.17,-119.67 194.01,-108.01"/>
<polygon fill="black" stroke="black" points="195.47,-104.82 184.99,-103.26 192.21,-111.01 195.47,-104.82"/>
</g>
<!-- main&#45;&gt;wrap_up -->
<g id="edge11" class="edge">
<title>main&#45;&gt;wrap_up</title>
<path fill="none" stroke="black" d="M152.41,-107.46C138.71,-133.34 114.7,-185.48 114.7,-233 114.7,-307 114.7,-307 114.7,-307 114.7,-348.52 98.66,-394.39 86.89,-422.46"/>
<polygon fill="black" stroke="black" points="83.55,-421.38 82.79,-431.95 89.97,-424.16 83.55,-421.38"/>
</g>
<!-- main_2 -->
<g id="node10" class="node">
<title>main_2</title>
<ellipse fill="none" stroke="black" cx="161.7" cy="-522" rx="44.39" ry="18"/>
<text text-anchor="middle" x="161.7" y="-518.3" font-family="Times,serif" font-size="14.00">main_2</text>
</g>
<!-- main&#45;&gt;main_2 -->
<g id="edge12" class="edge">
<title>main&#45;&gt;main_2</title>
<path fill="none" stroke="black" d="M167.41,-108.05C170.7,-134.71 170.7,-187.89 170.7,-233 170.7,-379 170.7,-379 170.7,-379 170.7,-419 170.7,-465.35 168.4,-493.92"/>
<polygon fill="black" stroke="black" points="164.91,-493.65 167.41,-503.95 171.88,-494.35 164.91,-493.65"/>
</g>
<!-- main_2&#45;&gt;wrap_up -->
<g id="edge13" class="edge">
<title>main_2&#45;&gt;wrap_up</title>
<path fill="none" stroke="black" d="M142.39,-505.46C130.53,-495.93 115.16,-483.56 102.06,-473.02"/>
<polygon fill="black" stroke="black" points="104.24,-470.28 94.25,-466.73 99.85,-475.73 104.24,-470.28"/>
</g>
<!-- main_2&#45;&gt;move_1 -->
<g id="edge14" class="edge">
<title>main_2&#45;&gt;move_1</title>
<path fill="none" stroke="black" d="M169.31,-503.88C173.87,-493.53 179.72,-480.05 184.7,-468 204.11,-420.93 225.46,-365.54 237.65,-333.53"/>
<polygon fill="black" stroke="black" points="240.99,-334.59 241.28,-324 234.45,-332.11 240.99,-334.59"/>
</g>
<!-- main_2&#45;&gt;main -->
<g id="edge15" class="edge">
<title>main_2&#45;&gt;main</title>
<path fill="none" stroke="black" d="M155.98,-503.95C152.7,-477.29 152.7,-424.11 152.7,-379 152.7,-379 152.7,-379 152.7,-233 152.7,-193 152.7,-146.65 154.99,-118.08"/>
<polygon fill="black" stroke="black" points="158.48,-118.35 155.98,-108.05 151.51,-117.65 158.48,-118.35"/>
</g>
<!-- main_2&#45;&gt;main_2 -->
<g id="edge16" class="edge">
<title>main_2&#45;&gt;main_2</title>
<path fill="none" stroke="black" d="M192.42,-534.94C208.89,-537.14 223.89,-532.83 223.89,-522 223.89,-513.46 214.55,-508.97 202.52,-508.53"/>
<polygon fill="black" stroke="black" points="202.22,-505.05 192.42,-509.06 202.58,-512.04 202.22,-505.05"/>
</g>
</g>
</svg>
